<!DOCTYPE svg PUBLIC "-//W3C//DTD SVG 20010904//EN" "http://www.w3.org/TR/2001/REC-SVG-20010904/DTD/svg10.dtd">
<svg version="1.0" xmlns="http://www.w3.org/2000/svg" width="60px" height="60px" viewBox="0 0 600 600" preserveAspectRatio="xMidYMid meet">
<g id="layer101" fill="#00c000" stroke="none">
 <path d="M0 300 l0 -300 300 0 300 0 0 300 0 300 -300 0 -300 0 0 -300z"/>
 </g>
<g id="layer102" fill="#fdfffd" stroke="none">
 <path d="M225 424 c-19 -14 -17 -17 39 -66 l59 -52 -59 -53 c-57 -50 -58 -53 -39 -66 18 -14 24 -10 86 47 36 33 67 65 68 69 1 5 -29 37 -66 72 -63 58 -70 62 -88 49z"/>
 </g>

</svg>