<!DOCTYPE svg PUBLIC "-//W3C//DTD SVG 20010904//EN" "http://www.w3.org/TR/2001/REC-SVG-20010904/DTD/svg10.dtd">
<svg version="1.0" xmlns="http://www.w3.org/2000/svg" width="216px" height="216px" viewBox="0 0 2160 2160" preserveAspectRatio="xMidYMid meet">
<g id="layer101" fill="#1b1b1b" stroke="none">
 <path d="M1621 2060 c-18 -22 -31 -49 -29 -60 2 -14 -86 -109 -332 -355 l-335 -335 -117 117 -118 118 0 100 0 100 -155 155 c-191 191 -189 190 -193 12 l-3 -121 -121 -3 c-178 -4 -179 -2 12 -193 l155 -155 100 0 100 0 118 -118 117 -117 -338 -338 c-228 -228 -343 -336 -353 -332 -8 3 -33 -9 -57 -27 -59 -45 -56 -68 16 -138 142 -138 348 -256 537 -307 92 -25 115 -27 300 -27 189 -1 206 1 300 27 126 35 319 129 410 201 l70 55 68 -67 68 -67 -53 -3 c-29 -2 -58 -8 -65 -14 -18 -14 -17 -112 1 -127 9 -8 69 -11 192 -9 l179 3 0 190 0 190 -60 3 c-71 4 -85 -9 -85 -77 l0 -46 -66 67 -67 66 62 82 c77 102 152 255 187 380 22 80 27 122 31 264 6 195 -4 274 -52 422 -57 175 -142 316 -268 447 -88 92 -108 97 -156 37z m192 -339 c104 -177 141 -331 134 -551 -5 -156 -23 -241 -74 -361 -36 -84 -94 -183 -138 -234 l-34 -40 -335 335 -336 335 337 337 336 337 33 -41 c18 -23 52 -75 77 -117z m-1273 -83 l0 -48 -48 0 c-39 0 -53 5 -72 25 l-23 25 36 0 c40 0 57 19 57 66 l0 27 25 -23 c20 -19 25 -33 25 -72z m1017 -1244 c-97 -77 -243 -149 -376 -185 -115 -32 -336 -37 -461 -11 -155 32 -293 95 -427 195 l-42 32 337 338 337 337 337 -337 337 -336 -42 -33z"/>
 </g>

</svg>